<?xml version="1.0" standalone="no"?>
<!DOCTYPE svg PUBLIC "-//W3C//DTD SVG 20010904//EN"
 "http://www.w3.org/TR/2001/REC-SVG-20010904/DTD/svg10.dtd">
<svg version="1.0" xmlns="http://www.w3.org/2000/svg"
 width="512.000000pt" height="512.000000pt" viewBox="0 0 512.000000 512.000000"
 preserveAspectRatio="xMidYMid meet">

<g transform="translate(0.000000,512.000000) scale(0.100000,-0.100000)"
fill="#000000" stroke="none">
<path d="M4320 4655 c-242 -49 -597 -235 -1015 -535 -82 -59 -160 -111 -172
-114 -13 -4 -60 5 -120 23 -393 121 -815 80 -1183 -115 -336 -179 -609 -505
-729 -871 -58 -175 -75 -288 -75 -483 0 -181 15 -284 61 -435 15 -49 27 -104
27 -121 0 -23 -26 -67 -103 -173 -399 -555 -600 -999 -552 -1217 19 -82 73
-136 155 -155 217 -48 662 153 1212 549 77 54 149 102 161 106 13 4 59 -5 120
-23 664 -205 1383 62 1756 651 235 371 297 846 167 1270 -17 53 -30 103 -30
111 0 8 58 96 129 196 381 534 579 975 532 1186 -31 137 -148 189 -341 150z
m-36 -387 c-12 -42 -78 -182 -131 -279 -74 -138 -179 -301 -302 -471 -132
-183 -166 -246 -182 -326 -14 -77 -7 -150 26 -252 45 -143 58 -228 58 -375 0
-149 -9 -215 -49 -354 -104 -358 -411 -674 -764 -785 -254 -81 -525 -81 -759
-1 -143 48 -264 43 -374 -18 -31 -18 -125 -81 -209 -141 -181 -131 -400 -267
-546 -341 -113 -57 -212 -98 -218 -92 -8 7 26 88 85 207 96 189 237 413 402
637 38 50 79 113 92 140 53 103 58 229 16 349 -66 191 -83 444 -41 634 68 313
247 580 504 753 205 137 416 200 673 200 147 0 263 -18 389 -62 119 -42 246
-37 347 15 26 13 100 62 165 110 137 100 304 211 419 279 133 78 364 191 398
194 5 1 5 -9 1 -21z"/>
<path d="M3570 3789 c-25 -8 -93 -68 -248 -222 l-212 -211 -28 17 c-57 38
-190 97 -263 117 -42 11 -117 24 -167 29 -676 62 -1200 -564 -1021 -1219 19
-72 78 -205 116 -262 l17 -28 -211 -212 c-179 -181 -213 -219 -222 -256 -36
-132 78 -247 210 -212 38 10 73 41 256 223 l213 211 37 -23 c235 -141 512
-181 771 -111 266 73 501 272 618 525 135 293 114 634 -57 918 l-23 37 211
213 c182 183 213 218 223 256 14 53 7 98 -23 142 -41 61 -124 89 -197 68z
m-857 -625 c33 -8 80 -25 104 -36 l45 -21 -423 -423 c-474 -474 -428 -443
-470 -323 -30 86 -37 247 -15 342 52 223 235 408 454 461 79 20 231 20 305 0z
m452 -456 c19 -81 19 -215 0 -296 -52 -220 -237 -405 -457 -457 -126 -29 -296
-14 -404 36 l-46 22 423 423 424 424 22 -45 c13 -24 30 -73 38 -107z"/>
</g>
</svg>
